<?xml version="1.0" standalone="no"?><!DOCTYPE svg PUBLIC "-//W3C//DTD SVG 1.1//EN" "http://www.w3.org/Graphics/SVG/1.1/DTD/svg11.dtd"><svg class="icon" width="200px" height="200.00px" viewBox="0 0 1024 1024" version="1.1" xmlns="http://www.w3.org/2000/svg"><path fill="#dbdbdb" d="M512 438.838857c-131.392 0-237.714286 106.375314-237.714286 237.732571 0 131.285943 106.322286 237.714286 237.714286 237.714286 131.320686 0 237.714286-106.428343 237.714286-237.714286C749.714286 545.214171 643.322514 438.838857 512 438.838857zM512 896c-121.000229 0-219.428571-98.428343-219.428571-219.428571s98.428343-219.446857 219.428571-219.446857S731.428571 555.5712 731.428571 676.571429 633.000229 896 512 896zM621.714286 642.784914l-77.143771 0-23.892114-73.3568c-2.428343-7.572114-14.928457-7.572114-17.3568 0l-23.857371 73.3568L402.285714 642.784914c-3.964343 0-7.464229 2.570971-8.6784 6.357943-1.250743 3.7504 0.107886 7.857371 3.320686 10.2144l62.392686 45.321143-23.8208 73.393371c-1.214171 3.785143 0.142629 7.892114 3.357257 10.2144 3.143314 2.322286 7.572114 2.322286 10.7136 0L512 742.965029l62.429257 45.321143c1.570743 1.142857 3.465143 1.749943 5.357714 1.749943s3.785143-0.607086 5.357714-1.749943c3.214629-2.322286 4.571429-6.429257 3.357257-10.2144l-23.8208-73.393371 62.392686-45.321143c3.214629-2.357029 4.571429-6.464 3.320686-10.2144C629.178514 645.357714 625.678629 642.784914 621.714286 642.784914zM859.428571 39.339886c-0.285257-0.554057-0.643657-1.053257-0.643657-1.910857 0-20.196571-16.356571-36.571429-36.571429-36.571429-1.322057 0-2.143086-0.321829-2.642286-0.8576L203.499886 0c-0.4992 0.535771-1.322057 0.8576-2.642286 0.8576C181.143771 0.8576 165.357714 16.517486 164.571429 36.017371l0 234.517943 128.6784 136.232229C214.785829 470.464 164.571429 567.606857 164.571429 676.571429c0 191.857371 155.499886 347.428571 347.428571 347.428571 191.8208 0 347.428571-155.5712 347.428571-347.428571 0-108.964571-50.249143-206.089143-128.714971-269.7856L859.428571 270.535314 859.428571 39.339886zM630.857143 73.142857l0 277.321143c-37.141943-13.553371-77.035886-21.321143-118.857143-21.321143s-81.7152 7.767771-118.857143 21.302857L393.142857 73.142857 630.857143 73.142857zM237.714286 73.142857l100.571429 0 0 274.8032-100.571429-106.481371L237.714286 73.142857zM786.285714 676.571429c0 151.250286-123.035429 274.285714-274.285714 274.285714s-274.285714-123.035429-274.285714-274.285714 123.035429-274.285714 274.285714-274.285714S786.285714 525.321143 786.285714 676.571429zM786.285714 241.464686l-100.571429 106.481371L685.714286 73.142857l100.571429 0L786.285714 241.464686z" /></svg>